<?xml version="1.0" encoding="utf-8"?>
<!-- Generator: Adobe Illustrator 16.0.0, SVG Export Plug-In . SVG Version: 6.00 Build 0)  -->
<!DOCTYPE svg PUBLIC "-//W3C//DTD SVG 1.1//EN" "http://www.w3.org/Graphics/SVG/1.1/DTD/svg11.dtd">
<svg version="1.1" id="Layer_1" xmlns="http://www.w3.org/2000/svg" xmlns:xlink="http://www.w3.org/1999/xlink" x="0px" y="0px"
	 width="256px" height="256px" viewBox="-28 -28 256 256" enable-background="new -28 -28 256 256" xml:space="preserve">
<rect x="327" y="-8" fill="#FFFFFF" width="200" height="202"/>
<rect x="327" y="-8" fill="#2C5D78" width="200" height="102"/>
<g>
	<circle fill="#2C5D78" cx="426.834" cy="87.835" r="46.834"/>
	<g>
		<path fill="#FFFFFF" d="M391.668,84.266L428,100.65V67.963C425,69.259,392.578,84.494,391.668,84.266z"/>
		<path fill="#EAEAEA" d="M463.812,84.268l-35.899-16.396c0,0,0.087,0.032,0.087,0.091v32.688l-0.26,0.011L463.812,84.268z"/>
	</g>
	<g>
		<polygon fill="#FFFFFF" points="399,89.968 399,108.823 412.293,105.887 428,120.327 428,102.779 		"/>
		<polygon fill="#EAEAEA" points="428,102.779 428,102.779 428,120.327 427.854,120.38 441.189,106.361 455,108.977 455,90.351 		
			"/>
	</g>
	<path fill="#DE3A39" d="M426,84.266v-0.972l-20,7.899v19.759v0.347c0,0.174-1.14,0.871-1.14,1.707c0,0.646,0.468,1.211,0.99,1.514
		l-2.219,8.35l0.681,0.24l1.688-6.926V125h1v-8.857l2.114,6.963l0.972-0.244l-2.288-8.428c0.449-0.314,0.581-0.838,0.581-1.428
		c0-0.779-0.379-1.441-1.379-1.666V91.793L426,84.266z"/>
</g>
<text transform="matrix(1 0 0 1 362 55.6035)" fill="#FFFFFF" font-family="'Helvetica-Light'" font-size="69.5654">lifter</text>
<text transform="matrix(1 0 0 1 400 189.1455)" fill="#2C5D78" font-family="'Helvetica-Bold'" font-size="67.2786">MS</text>
<text transform="matrix(1.0975 0 0 1 353 189.1455)" fill="#2C5D78" font-family="'Helvetica-Bold'" font-size="69.1432">L</text>
<rect x="-72.021" y="-33.927" fill="#2295FF" width="354.443" height="258.366"/>
<g>
	<text transform="matrix(1 0 0 1 53.7949 126.2041)" fill="#FFFFFF" font-family="'HelveticaNeue'" font-size="106.1225">MS</text>
	<text transform="matrix(1 0 0 1 -16.4453 126.2041)" fill="#FFFFFF" font-family="'HelveticaNeue'" font-size="106.1225">L</text>
</g>
<ellipse fill="#2295FF" cx="99.811" cy="124.842" rx="9.881" ry="6.967"/>
<path fill="#EAEAEA" d="M250.02,189.171c0-7.35-6.365-13.307-14.217-13.307c-7.851,0-14.216,5.957-14.216,13.307
	c0,2.921,1.017,5.617,2.727,7.813c-0.76-0.074-1.527-0.109-2.308-0.109c-7.757,0-14.618,3.664-18.809,9.281
	c-4.547-5.617-11.991-9.281-20.411-9.281c-4.921,0-9.507,1.256-13.38,3.419c-4.85-4.049-13.351-6.735-23.037-6.735
	c-3.373,0-6.596,0.327-9.578,0.92c0.012-0.22,0.033-0.438,0.033-0.662c0-6.955-5.099-12.761-11.908-14.197
	c-0.329-9.752-7.242-17.906-16.626-20.522c1.298-1.572,2.079-3.588,2.079-5.787c0-3.836-2.377-7.109-5.736-8.451
	c0.948-0.962,1.533-2.278,1.533-3.735c0-2.938-2.381-5.321-5.321-5.321c-2.942,0-5.324,2.383-5.324,5.321
	c0,1.593,0.7,3.012,1.805,3.988c-3.054,1.47-5.166,4.583-5.166,8.198c0,2.328,0.88,4.442,2.314,6.053
	c-9.158,2.94-15.762,11.221-15.762,20.981c0,2.009,0.284,3.954,0.808,5.805c-2.194-1.168-4.684-1.839-7.33-1.839
	c-8.774,0-15.889,7.266-15.889,16.228c0,1.513,0.218,2.972,0.598,4.361c-1.609-0.271-3.288-0.419-5.018-0.419
	c-6.619,0-12.522,2.108-16.385,5.403c-3.886-3.887-9.196-6.288-15.054-6.288c-4.419,0-8.527,1.367-11.948,3.705
	c-3.811-6.262-10.582-10.43-18.31-10.43c-0.588,0-1.171,0.031-1.751,0.079c0.946-2.221,1.472-4.659,1.472-7.221
	c0-10.29-8.452-18.63-18.879-18.63c-10.424,0-18.878,8.34-18.878,18.63c0,10.289,8.455,18.63,18.878,18.63
	c0.084,0,0.167-0.006,0.249-0.007c-1.696,3.163-2.661,6.791-2.661,10.652c0,12.221,9.66,22.132,21.569,22.132
	c2.991,0,5.837-0.625,8.426-1.754c97.646,64.643,176.528,20.435,208.097-3.795c4.077,3.449,9.43,5.547,15.295,5.547
	c12.767,0,23.114-9.909,23.114-22.131c0-6.615-3.032-12.546-7.836-16.602C244.439,201.712,250.02,196.051,250.02,189.171z"/>
<text transform="matrix(1.0975 0 0 1 21.2305 35.1035)" fill="#FFFFFF" font-family="'HelveticaNeue'" font-size="30.9643">L I F T E R</text>
<g>
	<g>
		<path fill="#243C56" d="M106.983,82.893c-2.69-8.107-7-10.914-7-10.914c-3.443,2.557-5.599,6.481-6.897,10.914
			C93.094,82.888,100.006,78.216,106.983,82.893z"/>
		<g>
			<path fill="#243C56" d="M107.376,113.375c2.571-12.914,1.917-22.107,0.199-28.5c-8.389-5.641-14.999,0.028-15.006,0.001
				c-2.951,12.754,0.29,28.498,0.29,28.498l-5.779,8.871l7.795-1.21c2.172,8.488,5.378,9.274,5.378,9.274
				c2.823-1.345,5.242-9.408,5.242-9.408l7.258,1.21L107.376,113.375z"/>
		</g>
	</g>
	<circle fill="#EAEAEA" cx="100.432" cy="93.663" r="3.943"/>
</g>
</svg>
